<?xml version="1.0" standalone="no"?>
<!DOCTYPE svg PUBLIC "-//W3C//DTD SVG 20010904//EN"
 "http://www.w3.org/TR/2001/REC-SVG-20010904/DTD/svg10.dtd">
<svg version="1.0" xmlns="http://www.w3.org/2000/svg"
 width="32.000000pt" height="32.000000pt" viewBox="0 0 32.000000 32.000000"
 preserveAspectRatio="xMidYMid meet">

<g transform="translate(0.000000,32.000000) scale(0.100000,-0.100000)"
fill="#000000" stroke="none">
<path d="M95 306 c-101 -44 -125 -178 -46 -257 65 -65 157 -65 222 0 124 124
-15 327 -176 257z m33 -143 l-3 -68 -32 -3 c-40 -4 -45 15 -5 20 25 3 27 6 27
53 0 44 -3 50 -25 56 -23 6 -22 7 8 8 l33 1 -3 -67z m120 34 c2 -16 -2 -35 -9
-43 -9 -11 -8 -18 6 -34 10 -11 15 -23 12 -26 -9 -9 -35 14 -42 37 -9 27 -25
24 -25 -5 0 -14 -4 -28 -10 -31 -6 -4 -10 16 -10 52 0 34 -5 64 -12 72 -11 10
-3 12 37 9 46 -3 50 -5 53 -31z"/>
<path d="M190 190 c0 -23 4 -30 20 -30 25 0 28 45 4 54 -23 9 -24 8 -24 -24z"/>
</g>
</svg>
